<?xml version="1.0" encoding="utf-8"?>
<svg version="1.1" id="Layer_1" xmlns="http://www.w3.org/2000/svg" xmlns:xlink="http://www.w3.org/1999/xlink" x="0px" y="0px"
	 width="250px" height="10.8px" viewBox="0 0 250 10.8" enable-background="new 0 0 250 10.8" xml:space="preserve">
<g>
	<defs>
		<rect id="SVGID_1_" width="250" height="10.8"/>
	</defs>
	<clipPath id="SVGID_2_">
		<use xlink:href="#SVGID_1_"  overflow="visible"/>
	</clipPath>
	<path clip-path="url(#SVGID_2_)" fill="#233354" d="M249.6,0.2L249.6,0.2h-12h0l-0.4,3.5h1.1c0-1.4,1-2.6,3.9-2.6h0v8.5h-1.8
		l-0.3,0.9h6.8l-0.3-0.9H245V1.1h0c2.9,0,3.9,1.2,3.9,2.6h1.1L249.6,0.2z"/>
	<path clip-path="url(#SVGID_2_)" fill="#233354" d="M233,0.2L233,0.2h-12h0l-0.4,3.5h1.1c0-1.4,1-2.6,3.9-2.6h0v8.5h-1.8l-0.3,0.9
		h6.8l-0.3-0.9h-1.7V1.1h0c2.9,0,3.9,1.2,3.9,2.6h1.1L233,0.2z"/>
	<path clip-path="url(#SVGID_2_)" fill="#233354" d="M10,1C9.9,1,9.7,0.8,9.4,0.7C8.8,0.4,7.9,0,6.6,0C3,0,0,2.5,0,5.4
		c0,2.9,3,5.4,6.6,5.4c1.4,0,2.4-0.5,3-0.8C9.7,9.9,9.9,9.8,10,9.8l0.5,0.6h1.1V6.4h-1.1c0,1.5-1.6,3.4-3.9,3.4C3.6,9.8,3,7.4,3,5.4
		c0-2,0.6-4.5,3.6-4.5c2.3,0,3.9,1.8,3.9,3.1h1.1V0.4h-1.1L10,1z"/>
	<polygon clip-path="url(#SVGID_2_)" fill="#233354" points="25.4,1.1 26.9,1.1 26.9,4.8 20.6,4.8 20.6,1.1 22.1,1.1 22.4,0.2 
		16.1,0.2 16.3,1.1 17.8,1.1 17.8,9.6 16.3,9.6 16.1,10.5 22.4,10.5 22.1,9.6 20.6,9.6 20.6,5.7 26.9,5.7 26.9,9.6 25.4,9.6 
		25.1,10.5 31.4,10.5 31.1,9.6 29.7,9.6 29.7,1.1 31.1,1.1 31.4,0.2 25.1,0.2 	"/>
	<path clip-path="url(#SVGID_2_)" fill="#233354" d="M41.6,0h-0.7l-4.3,9c-0.3,0.6-0.4,0.6-0.9,0.6H35l-0.3,0.9h4.8l-0.3-0.9h-1.1
		c-0.3,0-0.4,0-0.5-0.1c0-0.2,0.2-0.5,0.3-0.6l0.7-1.5h3.7l1.1,2.2h-1.4l-0.3,0.9h6.5l-0.3-0.9h-1.5L41.6,0z M39,6.5l1.4-3l1.4,3H39
		z"/>
	<path clip-path="url(#SVGID_2_)" fill="#233354" d="M80.3,6.7c0,2.2-0.7,2.9-4.6,2.9h-2.1V1.1h1.7l0.3-0.9h-6.7l0.3,0.9h1.7v8.5
		h-1.7l-0.3,0.9h12.4V6.7H80.3z"/>
	<path clip-path="url(#SVGID_2_)" fill="#233354" d="M96.5,7c0,1.9-1,2.6-4.3,2.6h-2.3V5.7h1.1c1.9,0,1.9,0.8,1.9,1.7h1.1V3.1h-1.1
		c0,0.8-0.1,1.7-1.9,1.7h-1.1V1.1h2.7c2.9,0,3.2,1.4,3.2,2.1h1.1l-0.3-3H85.4l0.3,0.9h1.5v8.5h-1.5l-0.3,0.9h11.8L97.6,7H96.5z"/>
	<path clip-path="url(#SVGID_2_)" fill="#233354" d="M107.9,4.2c-3.4-0.4-3.6-0.7-3.6-1.6c0-1,1-1.7,2.5-1.7c2.1,0,3.4,1,3.6,2.7
		l0,0.3h1V0.3h-1L110,0.8c-0.1,0-0.3-0.1-0.4-0.2C109,0.4,108.1,0,106.8,0c-2.4,0-4.1,1.2-4.1,3c0,2.6,1.8,3,4.9,3.3
		c2.3,0.2,3,0.6,3,1.8c0,1-1.2,1.7-2.9,1.7c-2.5,0-3.9-1.5-3.9-3.4h-1.1v4.1h1.1l0.4-0.5c0.2,0,0.3,0.1,0.5,0.2
		c0.7,0.2,1.6,0.5,2.9,0.5c2.9,0,4.6-1.3,4.6-3.5C112.3,5.1,110.6,4.5,107.9,4.2"/>
	<path clip-path="url(#SVGID_2_)" fill="#233354" d="M183.9,0.2l-0.3,0.9l1.1,0c0,0,0.4,0,0.5,0.1c0.1,0.1-0.1,0.5-0.1,0.5l-3,5.8
		l-1.8-3.8l1.1-2.1c0,0,0,0,0-0.1c0.1-0.1,0.2-0.3,0.3-0.3c0.2-0.1,0.4-0.2,0.9-0.2h0.6l0.3-0.9h-4.5h-9.4l0.3,0.9h1.3l4.9,9.7h0.8
		l2.2-4.2l2,4.2h0.8l4.6-9c0.4-0.8,0.6-0.7,1.6-0.7l0.3-0.9H183.9z M177.1,7.5L174,1.1h2.1l2.2,4.4L177.1,7.5z M178.9,1.1
		c0.3,0,0.8,0,0.8,0c0.2,0,0.4,0,0.5,0.1c0,0,0,0.1,0,0.2l-0.1,0.2c0,0,0,0,0,0h0l-0.5,0.9L178.9,1.1z"/>
	<polygon clip-path="url(#SVGID_2_)" fill="#233354" points="200.8,1.1 202.4,1.1 202.4,4.8 196,4.8 196,1.1 197.6,1.1 197.9,0.2 
		191.5,0.2 191.8,1.1 193.3,1.1 193.3,9.6 191.8,9.6 191.5,10.5 197.9,10.5 197.6,9.6 196,9.6 196,5.7 202.4,5.7 202.4,9.6 
		200.8,9.6 200.6,10.5 206.9,10.5 206.6,9.6 205.2,9.6 205.2,1.1 206.6,1.1 206.9,0.2 200.6,0.2 	"/>
	<polygon clip-path="url(#SVGID_2_)" fill="#233354" points="210.8,1.1 212.3,1.1 212.3,9.6 210.8,9.6 210.5,10.5 216.8,10.5 
		216.5,9.6 215,9.6 215,1.1 216.5,1.1 216.8,0.2 210.5,0.2 	"/>
	<path clip-path="url(#SVGID_2_)" fill="#233354" d="M134.2,0.2L134.2,0.2h-12h0l-0.4,3.5h1.1c0-1.4,1-2.6,3.9-2.6h0v8.5h-1.7
		l-0.3,0.9h6.8l-0.3-0.9h-1.7V1.1h0c2.9,0,3.9,1.2,3.9,2.6h1.1L134.2,0.2z"/>
	<path clip-path="url(#SVGID_2_)" fill="#233354" d="M151.5,0.2h-4.6l-0.3,0.9c0,0,1,0,1.1,0c0.2,0,0.4,0,0.5,0.1
		c0.1,0.1,0,0.3-0.1,0.5c-0.1,0.1-0.1,0.2-0.2,0.4l-2.1,3.3l-2.6-4.2h1.1l0.3-0.9h-6.5l0.3,0.9h1.7l3.5,5.6v2.9h-1.8l-0.3,0.9h6.9
		l-0.3-0.9h-1.8V6.5l3.1-4.8c0.2-0.3,0.4-0.6,0.9-0.6h0.9L151.5,0.2z"/>
	<path clip-path="url(#SVGID_2_)" fill="#233354" d="M64.3,9.6c-0.2,0.1-0.5,0.1-0.8,0.1c-0.2,0-0.5,0-0.6-0.6l-0.3-1.7
		c-0.2-1.4-0.9-2-2-2.3C62.2,4.8,63.1,4,63.1,3c0-2.8-3.8-2.8-5.1-2.8h-6.4l0.3,0.9h1.7v8.5h-1.7l-0.3,0.9h6.7L58,9.7h-1.7v-4h0.9
		c2.1,0,2.2,0.7,2.3,1.3l0.1,0.9c0.3,1.6,0.5,2.7,3.2,2.7c0.8,0,1.4-0.1,1.7-0.2c0.4-0.1,0.9-0.4,0.9-0.4L65,9.3
		C65,9.3,64.6,9.5,64.3,9.6 M56.3,1.1h1c2.6,0,2.9,1,2.9,1.9c0,0.9-0.4,1.8-3.3,1.8h-0.6V1.1z"/>
	<path clip-path="url(#SVGID_2_)" fill="#233354" d="M167.7,9.5c-0.2,0.1-0.5,0.1-0.8,0.1c-0.2,0-0.5,0-0.6-0.6L166,7.4
		c-0.2-1.4-1-2-2-2.3c1.6-0.4,2.4-1.2,2.4-2.2c0-2.8-3.8-2.8-5.1-2.8H155l0.3,0.9h1.7v8.5h-1.7l-0.3,0.9h6.7l-0.3-0.9h-1.7V5.6h0.9
		c2.1,0,2.2,0.7,2.3,1.4l0.1,0.9c0.3,1.6,0.5,2.7,3.2,2.7c0.8,0,1.4-0.1,1.7-0.2c0.4-0.1,0.9-0.4,0.9-0.4l-0.5-0.7
		C168.4,9.2,168,9.5,167.7,9.5 M159.7,1.1h1c2.6,0,2.9,1,2.9,1.9c0,0.9-0.4,1.8-3.3,1.8h-0.6V1.1z"/>
</g>
</svg>
