<?xml version="1.0" encoding="utf-8"?>
<!-- Generator: Adobe Illustrator 19.1.0, SVG Export Plug-In . SVG Version: 6.00 Build 0)  -->
<svg version="1.1" id="Layer_1" xmlns="http://www.w3.org/2000/svg" xmlns:xlink="http://www.w3.org/1999/xlink" x="0px" y="0px"
	 viewBox="0 0 70 70" style="enable-background:new 0 0 70 70;" xml:space="preserve">
<style type="text/css">
	.st0{fill:#FFFFFF;}
	.st1{fill:#D0C9C4;}
	.st2{fill:#233354;}
</style>
<polygon class="st0" points="36.3,15.8 54.4,15.5 65,28.5 68.5,35.4 69,54.8 47.3,55.7 28,55.2 21.8,54.7 21.8,34.5 31.6,21.3 "/>
<g>
	<path class="st1" d="M8.3,28.7l-0.9-4.6c0,0-0.9-0.1,1.1,0c1.6,0.1,2.3,0.4,4.5,0.4c5,0,9.5-0.4,9.5-0.4s-0.7,3.4-2.3,4.6
		C18.8,29.9,8.3,28.7,8.3,28.7z"/>
	<path class="st1" d="M1.2,37.3L0,33.7c0,0,2.3-1.1,5-1C7.1,32.7,6.3,33,9.3,33c6.6,0,9.5-0.4,9.5-0.4s-0.9,3.4-3,4.6
		C13.7,38.4,1.2,37.3,1.2,37.3z"/>
	<path class="st1" d="M4.5,45.5l-0.7-4.6c0,0,1.5-0.1,3.2,0c1.4,0.1,0.2,0.4,2,0.4c4.2,0,7.2-0.4,7.2-0.4s-0.6,3.4-1.9,4.6
		C12.9,46.7,4.5,45.5,4.5,45.5z"/>
	<path class="st1" d="M43.2,16c0,0-2.3,7.8-3.9,10.8c-1.6,3-3.2,6.4-3.4,8.3c-0.2,1.8-1,13,0,20.3h15.3c0,0-1-5-1-8.6
		s1.5-10.6,1-11.6c-0.5-0.9-1.3-8.5-2.3-12.4s-1.6-6.1-1.6-6.1L43.2,16z"/>
	<path class="st2" d="M69,34.1c-1.7-3.3-3.8-5.7-5.5-8.3c-2.1-3.1-3.8-5.1-5.3-7.1c-1.8-2.1-3.2-3.7-3.4-3.8l-0.4-0.4l-0.5-0.1
		c-0.2,0-6.1-0.5-10.2-0.5s-8.4,0.5-8.6,0.5l-0.6,0.1L34.2,15c-0.1,0.1-1.3,2.2-3.1,4.8c-1.8,2.5-4.3,4.6-6.4,7.3
		c-2.8,3.8-4.9,7-4.9,7c-0.7,1.1-0.3,21.8,0.1,22.2c0.4,0.4,8.6,0.7,20.5,0.7s28.7-0.5,29-0.7C69.6,55.9,69.7,35.5,69,34.1z
		 M36,17.4c1.4-0.2,7.3-0.7,10.5-0.7s5.1,0.6,6.5,0.7c1.5,1.6,7.6,7.3,12.7,16.7c0,0-14.1,0.3-24.2,0.3s-18.3-0.3-18.3-0.3
		C28.2,25.6,34.5,19.3,36,17.4z M66.9,53.8c0,0-7.7,0.6-17.8,0.6s-27-0.6-27-0.6V37.1c0,0,22.7-0.3,30.3-0.3s14.5,0.3,14.5,0.3
		L66.9,53.8z"/>
	<path class="st1" d="M55.5,48.7L54.2,49c0,0,0-0.5,0-1c0-0.5,0.1-0.9,0.1-1.5c0-1.4-0.1-2.9-0.1-2.9s0.9,0.2,1.3,0.6
		C55.8,44.6,55.5,48.7,55.5,48.7z"/>
	<path class="st1" d="M57.4,48.7L56.1,49c0,0,0-0.5,0-1c0-0.5,0.1-0.9,0.1-1.5c0-1.4-0.1-2.9-0.1-2.9s0.9,0.2,1.3,0.6
		C57.8,44.6,57.4,48.7,57.4,48.7z"/>
	<path class="st1" d="M60.3,48.7L59.1,49c0,0,0-0.5,0-1c0-0.5,0.1-0.9,0.1-1.5c0-1.4-0.1-2.9-0.1-2.9s0.9,0.2,1.3,0.6
		C60.6,44.6,60.3,48.7,60.3,48.7z"/>
	<path class="st1" d="M63.3,48.7L62,49c0,0,0-0.5,0-1c0-0.5,0.1-0.9,0.1-1.5c0-1.4-0.1-2.9-0.1-2.9s0.9,0.2,1.3,0.6
		C63.6,44.6,63.3,48.7,63.3,48.7z"/>
</g>
</svg>
