<svg id="Layer_1" xmlns="http://www.w3.org/2000/svg" viewBox="0 0 626.8 145.9"><style>.st0{fill:#484545}.st1{fill:#ffdc00}</style><path class="st0" d="M168.1 101v-3.4c0-39.5-23.1-63.9-56.9-63.9-14.4 0-28.5 5.9-39.2 16.6-10.5 10.5-16.2 24.1-16.2 39 0 15 5.3 28.5 15.6 39.3 10.9 11.5 23.9 17 40.1 17 23.7 0 41.3-11.3 51.6-33.4h-34.4c-4.7 4.2-9.9 5.9-16.2 5.9-13.6 0-21.8-5.9-24.5-17.2l80.1.1zm-31.5-22.1H87c2.2-10.1 11.5-16.8 24.5-16.8 12.5 0 21.4 5.9 25.1 16.8M286.3 101v-3.4c0-39.5-23.1-63.9-56.9-63.9-14.4 0-28.5 5.9-39.2 16.6-10.5 10.5-16.2 24.1-16.2 39 0 15 5.3 28.5 15.6 39.3 10.9 11.5 23.9 17 40.1 17 23.7 0 41.3-11.3 51.6-33.4h-34.4c-4.7 4.2-9.9 5.9-16.2 5.9-13.6 0-21.8-5.9-24.5-17.2l80.1.1zm-31.5-22.1h-49.6c2.2-10.1 11.5-16.8 24.5-16.8 12.5 0 21.4 5.9 25.1 16.8M11.5 60.7v82.5h30.7V60.7h12.5V37H42.1v-2.6c0-9.7 2.2-12.9 11.7-12.9h.8V.1c-1.8 0-3.4-.2-4.9-.2C23.5 0 11.3 10.3 11.3 33c0 1.2.2 2.6.2 4H0v23.7h11.5zM298.1 60.7v82.5h30.7V60.7h12.5V37h-12.5v-2.6c0-9.7 2.2-12.9 11.7-12.9h.8V.2c-1.8 0-3.4-.2-4.9-.2C310.2 0 298 10.3 298 33c0 1.2.2 2.6.2 4h-11.5v23.7h11.4zM453.3 89.4c0-14.4-6.1-29.1-17.4-39.7-10.7-10.1-23.9-15.4-39.4-15.4-14.4 0-28.5 5.9-39.2 16.6-10.5 10.5-16.2 24.1-16.2 39 0 14.8 5.3 28.5 15.6 39.2 10.9 11.5 23.9 17 40.1 17 16 0 29.5-5.7 40.3-16.6 10.9-10.9 16.2-24.1 16.2-40.1m-31 .8c0 14.4-11.3 26.1-25.1 26.1-13.6 0-25.1-11.7-25.1-26.1 0-14.6 11.3-26.3 25.1-26.3s25.1 11.6 25.1 26.3"/><path class="st1" d="M501.3 72.1c-15-.9-27.1-13-28-28.1h65.8v-.7c0-25.8-16.5-43.1-39.3-43.1-24.1 0-40.5 17.7-40.5 40.6 0 21.7 16.9 40.8 40 40.8 16.8 0 30.1-9.3 37.3-26.6H530c-4.8 10.1-15 17.1-26.9 17.1-.7.1-1.2.1-1.8 0M584.8 72.1c15-.9 27.1-13 28-28.1H547v-.7C547 17.5 563.5.2 586.3.2c24.1 0 40.5 17.7 40.5 40.6 0 21.7-16.9 40.8-40 40.8-16.8 0-30.1-9.3-37.3-26.6h6.7c4.8 10.1 15 17.1 26.9 17.1.5.1 1.1.1 1.7 0"/></svg>