<?xml version="1.0" encoding="utf-8"?>
<!-- Generator: Adobe Illustrator 21.1.0, SVG Export Plug-In . SVG Version: 6.00 Build 0)  -->
<svg version="1.1" id="Layer_1" xmlns="http://www.w3.org/2000/svg" xmlns:xlink="http://www.w3.org/1999/xlink" x="0px" y="0px"
	 viewBox="0 0 60 60" style="enable-background:new 0 0 60 60;" xml:space="preserve">
<style type="text/css">
	.st0{fill:#001F49;}
</style>
<title>Guarantee</title>
<desc>Created using Figma</desc>
<g>
	<path class="st0" d="M30,10.1c-8,0-14.4,6.4-14.4,14.2S22,38.6,30,38.6s14.4-6.4,14.4-14.2C44.4,16.6,38,10.1,30,10.1z M30,36.7
		c-6.9,0-12.5-5.5-12.5-12.3C17.5,17.5,23.1,12,30,12s12.5,5.5,12.5,12.3S36.9,36.7,30,36.7z"/>
	<path class="st0" d="M30,13c-6.3,0-11.4,5.1-11.4,11.3S23.7,35.5,30,35.5s11.4-5.1,11.4-11.3S36.3,13,30,13z M30,33.6
		c-5.3,0-9.5-4.2-9.5-9.4s4.3-9.4,9.5-9.4c5.3,0,9.5,4.2,9.5,9.4S35.3,33.6,30,33.6z"/>
	<path class="st0" d="M48.7,26.3l3.3-4.2l-4.1-3.4l1.3-5.2L44,11.9l-1-5.2l-5.4,0.7l-3-4.4L30,5.8L25.4,3l-3,4.4L17,6.7l-1,5.2
		l-5.2,1.5l1.3,5.2L8,22.1l3.3,4.2L9,31.1l4.8,2.5l-0.2,5.3l5.4,0.4l1.8,4.3v12.5V58l1.7-0.9l7.5-3.7l7.4,3.7l1.7,0.9v-1.9V44.1
		l2-4.8l5.4-0.4l-0.2-5.3l4.8-2.5L48.7,26.3z M37.5,55.3l-6.7-3.4L30,51.5l-0.8,0.4l-6.7,3.4V43.7l3.7-1.3l3.9,3.7l3.9-3.7l3.5,1.2
		V55.3z M45.4,31.9l-1,0.6v1.2l0.1,3.5l-3.6,0.3l-1.2,0.1l-0.5,1.1L37.8,42l-3.4-1.2l-1.1-0.4l-0.9,0.8L30,43.5l-2.6-2.4l-0.9-0.8
		l-1.1,0.4L22,41.9l-1.4-3.3l-0.5-1.1l-1.2-0.1l-3.6-0.3l0.1-3.5v-1.2l-1-0.6l-3.1-1.7l1.5-3.2l0.5-1.1l-0.7-0.9l-2.2-2.8l2.7-2.3
		L14,19v-0.8l-0.8-3.4l3.4-1l1.1-0.3l0.2-1.1l0.6-3.5L22,9.4l1.2,0.2l0.7-1l2-2.9l3,1.8L30,8l1-0.6l3-1.8l2,2.9l0.7,1l1.2-0.2
		l3.5-0.5l0.6,3.5l0.2,1.1l1.1,0.3l3.4,1L46,18.2l-0.3,1.1l0.9,0.8l2.7,2.3l-2.2,2.8L46.5,26l0.5,1.1l1.5,3.2L45.4,31.9z"/>
	<path class="st0" d="M32.8,23.9c-0.3-0.3-0.6-0.5-1-0.6c-0.4-0.1-0.8-0.2-1.2-0.2c-0.4,0-0.7,0.1-1,0.2c-0.3,0.1-0.6,0.3-0.9,0.5
		c0.1-0.4,0.3-0.9,0.5-1.3c0.2-0.4,0.5-0.8,0.8-1.2c0.3-0.4,0.7-0.8,1.1-1.1c0.4-0.4,0.9-0.8,1.4-1.1c0.1-0.1,0.2-0.2,0.2-0.3
		c0-0.1-0.1-0.3-0.2-0.5c-1.1,0.5-2,1-2.8,1.6c-0.8,0.6-1.5,1.3-2,1.9c-0.5,0.7-0.9,1.4-1.2,2.1S26,25.4,26,26.1
		c0,0.5,0.1,1,0.2,1.5c0.1,0.5,0.3,0.9,0.6,1.3c0.3,0.4,0.7,0.7,1.2,1c0.5,0.2,1.1,0.4,1.9,0.4c0.6,0,1.2-0.1,1.6-0.3
		c0.5-0.2,0.9-0.5,1.2-0.9c0.3-0.4,0.6-0.8,0.8-1.2c0.2-0.4,0.3-0.9,0.3-1.3c0-0.6-0.1-1.1-0.2-1.5C33.3,24.6,33.1,24.2,32.8,23.9z
		 M30.9,28.8c-0.3,0.4-0.6,0.6-1.1,0.6c-0.9,0-1.4-1-1.4-2.9c0-0.3,0-0.6,0-0.8c0-0.3,0.1-0.5,0.2-0.7c0.1-0.2,0.2-0.4,0.4-0.5
		c0.2-0.1,0.5-0.2,0.8-0.2c0.5,0,0.8,0.2,1.1,0.6c0.2,0.4,0.4,1,0.4,1.9C31.3,27.7,31.2,28.4,30.9,28.8z"/>
</g>
</svg>
