<svg id="ICONS" xmlns="http://www.w3.org/2000/svg" viewBox="0 0 48 48"><defs><style>.cls-1{fill:#001f49;}.cls-2{fill:none;}</style></defs><title>social-facebook</title><g id="_020201ff" data-name="#020201ff"><path class="cls-1" d="M21.17,13.42a6,6,0,0,1,3.74-1.19h4.24v4.05H26.41a1.26,1.26,0,0,0-1.28.89c0,.9,0,1.8,0,2.71h4c-.1,1.31-.28,2.61-.49,3.9H25.11c0,3.85,0,7.7,0,11.55H19.83c0-3.85,0-7.7,0-11.55H17.24c0-1.3,0-2.59,0-3.88h2.56c0-1.26,0-2.52,0-3.78A3.92,3.92,0,0,1,21.17,13.42Z"/></g><rect class="cls-2" x="8" y="7.84" width="32" height="32"/></svg>